<svg xmlns="http://www.w3.org/2000/svg" viewBox="0 0 400 400" xml:space="preserve">
  <path fill="#FFF" d="M293 373H1.045V1.103H432.83V373H293m-82.808-58.206c-.458.884-.872 1.795-1.381 2.649-5.174 8.673-1.32 21.285 7.724 25.236 8.476 3.703 17.4.61 22.427-7.772 3.802-6.338 1.217-16.866-5.198-22.072-2.083-1.69-4.673-3.634-5.363-5.958-1.034-3.481-.73-7.4-.75-11.134-.033-6.394.29-12.793.163-19.184-.182-9.09-.602-18.177-.988-27.262-.193-4.538-.594-9.067-.803-13.604-.601-13.01-.582-13.011 12.138-13.22.118-.002.24.18.844.663 0 5.085-.358 10.593.083 16.036.676 8.337-.597 16.976 3.781 24.815 4.495 8.048 10.486 14.659 19.864 15.825 8.002.995 16.294.75 24.334-.104 3.894-.414 5.968.326 7.438 3.46 3.042 6.488 14.608 8.457 20.524 6.274 8.118-2.995 10.804-8.049 9.969-17.726-.703-8.148-5.659-13.886-13.486-15.614-7.554-1.667-14.377 1.493-18.575 8.305-.718 1.163-2.348 2.359-3.647 2.469-6.656.563-13.34 1.021-20.017 1.05-8.808.038-18.014-8.542-17.917-15.723.11-8.174-.061-16.38-.678-24.528-.556-7.345.018-8.66 6.87-11.75 4.165-1.878 8.063-4.34 12.176-6.345 15.637-7.624 25.817-20.617 33.99-35.278 9.242-16.579 12.536-34.564 11.364-53.528-1.108-17.948-7.024-33.915-16.98-48.872-15.351-23.064-37.348-35.85-63.56-41.57-15.116-3.298-30.783-2.023-45.585 2.461-18.786 5.69-34.387 16.63-46.633 32.233-9.834 12.53-15.079 26.958-18.316 42.269-1.907 9.02-1.204 18.074-.762 27.252.526 10.921 3.605 21.041 7.863 30.605 3.735 8.39 9.424 16.05 15.046 23.428 9.818 12.884 22.783 21.966 37.846 27.728 3.933 1.504 4.6 4.261 4.74 7.15.405 8.414-.093 16.876.426 25.278.463 7.486-8.001 18.808-16.361 17.774-4.784-.59-9.833 1.33-14.73 1.159-4.355-.154-9.156 1.061-12.069-5.023-3.206-6.697-15.904-9.032-22.06-4.9-8.232 5.524-11.044 15.444-6.094 24.53 1.24 2.273 3.513 4.488 5.848 5.572 10.192 4.729 14.638 3.808 23.587-4.58 1.816-1.702 4.695-2.919 7.188-3.128 6.786-.571 13.69.035 20.435-.767 13.037-1.55 24.41-12.614 25.887-25.699.979-8.672.31-17.593-.318-26.353-.24-3.35.568-4.445 3.47-4.249 2.935.2 5.843.797 8.707 1.213.463 2.665 1.159 5.068 1.255 7.494.455 11.5.749 23.007 1.096 34.511.34 11.222.456 22.457 1.1 33.661.33 5.764.9 11.216-5.912 14.843z"/>
  <path fill="#040A88" d="M210.442 314.515c6.562-3.348 5.992-8.8 5.661-14.564-.643-11.204-.76-22.439-1.099-33.66-.347-11.505-.64-23.012-1.096-34.512-.096-2.426-.792-4.829-1.255-7.494-2.864-.416-5.772-1.013-8.707-1.213-2.902-.196-3.71.9-3.47 4.25.627 8.759 1.297 17.68.318 26.352-1.477 13.085-12.85 24.15-25.887 25.7-6.745.801-13.649.195-20.435.766-2.493.21-5.372 1.426-7.188 3.129-8.949 8.387-13.395 9.308-23.587 4.579-2.335-1.084-4.609-3.299-5.848-5.573-4.95-9.085-2.138-19.005 6.094-24.53 6.156-4.13 18.854-1.796 22.06 4.901 2.913 6.084 7.714 4.87 12.07 5.023 4.896.172 9.945-1.75 14.729-1.159 8.36 1.034 16.824-10.288 16.361-17.774-.52-8.402-.02-16.864-.427-25.278-.14-2.889-.806-5.646-4.74-7.15-15.062-5.762-28.027-14.844-37.845-27.728-5.622-7.377-11.311-15.038-15.046-23.428-4.258-9.564-7.337-19.684-7.863-30.605-.442-9.178-1.145-18.232.762-27.252 3.237-15.311 8.482-29.74 18.316-42.269 12.246-15.603 27.847-26.542 46.633-32.233 14.802-4.484 30.469-5.759 45.584-2.46 26.213 5.718 48.21 18.505 63.561 41.569 9.956 14.957 15.872 30.924 16.98 48.872 1.172 18.964-2.122 36.95-11.364 53.528-8.173 14.66-18.353 27.654-33.99 35.278-4.113 2.006-8.01 4.467-12.176 6.346-6.852 3.09-7.426 4.404-6.87 11.749.617 8.149.787 16.354.678 24.528-.097 7.18 9.109 15.761 17.917 15.723 6.677-.029 13.36-.487 20.017-1.05 1.299-.11 2.93-1.306 3.647-2.47 4.198-6.81 11.021-9.971 18.575-8.304 7.827 1.728 12.783 7.466 13.486 15.614.835 9.677-1.85 14.731-9.969 17.726-5.916 2.183-17.482.214-20.524-6.274-1.47-3.134-3.544-3.874-7.438-3.46-8.04.854-16.332 1.1-24.334.104-9.378-1.166-15.369-7.777-19.864-15.825-4.378-7.839-3.105-16.478-3.78-24.815-.442-5.443-.084-10.951-.084-16.036-.604-.483-.726-.665-.844-.663-12.72.209-12.739.21-12.138 13.22.21 4.537.61 9.066.803 13.604.386 9.085.806 18.171.988 27.262.127 6.39-.196 12.79-.163 19.184.02 3.734-.284 7.653.75 11.134.69 2.324 3.28 4.267 5.363 5.958 6.415 5.206 9 15.734 5.198 22.072-5.026 8.382-13.95 11.475-22.427 7.772-9.044-3.951-12.898-16.563-7.724-25.236.51-.854.923-1.765 1.631-2.928z"/>
</svg>
